<svg xmlns="http://www.w3.org/2000/svg" width="308.84" height="308.84" viewBox="0 0 308.84 308.84">
  <g>
    <circle cx="154.42" cy="154.42" r="154.42" fill="#2c2d38"/>
    <g>
      <path d="M258.27,116.07q-10.48-8.68-28.83-8.68-22.92,0-34.94,15-9.83-15-33.41-15-20.52,0-31.66,13.78l-1.09-11.06H93v87.83h37.55V149.26q0-7.83,4.81-12.6t12.88-4.76q6.56,0,10.26,3.74,3.72,3.59,3.72,9.88v52.42h37.55V149.26q0-7.83,4.81-12.6a18,18,0,0,1,12.88-4.76q6.56,0,10.27,3.74,3.7,3.59,3.71,9.88v52.42H269V140.07Q269,124.76,258.27,116.07Z" fill="#dfbbfe"/>
      <circle cx="59.81" cy="181.67" r="19.94" transform="translate(-127.15 222.01) rotate(-83.95)" fill="#dfbbfe"/>
    </g>
  </g>
</svg>
