<svg xmlns="http://www.w3.org/2000/svg" width="260" height="260" viewBox="0 0 260 260">
  <path d="M130,0A130,130,0,1,0,260,130,130,130,0,0,0,130,0ZM67.05,154.72a16.79,16.79,0,1,1-14.93-18.46A16.79,16.79,0,0,1,67.05,154.72Zm127.79,11.92V122.51c0-3.53-1.05-6.31-3.12-8.32s-5-3.15-8.65-3.15a15.13,15.13,0,0,0-10.84,4,14.27,14.27,0,0,0-4,10.61v41H136.57V122.51a11,11,0,0,0-3.14-8.32q-3.1-3.15-8.63-3.15-6.8,0-10.85,4a14.27,14.27,0,0,0-4,10.61v41H78.29V92.7H108L109,102q9.38-11.61,26.66-11.6,19.84,0,28.12,12.63,10.13-12.63,29.42-12.63,15.45,0,24.27,7.3,9,7.32,9,20.21v48.72Z"/>
</svg>
