<svg width="375" height="105" fill="none" xmlns="http://www.w3.org/2000/svg"><path d="M92.112 104.516c4.492 0 8.154-3.593 8.154-8.015 0-4.353-3.662-8.084-8.154-8.084-4.56 0-8.084 3.731-8.084 8.084 0 4.422 3.524 8.015 8.084 8.015zM120.714 103.549V83.857c0-4.284 3.04-7.116 7.255-7.116 3.179 0 5.528 2.418 5.528 5.527v21.281h15.202V83.857c0-4.214 3.179-7.116 7.117-7.116 3.179 0 5.736 1.934 5.736 5.527v21.281h15.201V80.126c0-8.636-6.771-13.266-15.823-13.266-6.15 0-11.056 2.073-14.373 6.08-2.626-4.007-6.91-6.08-13.267-6.08-5.597 0-10.019 1.866-13.129 5.597l-.345-4.56h-14.304v35.652h15.202zM205.847 104.862c12.991 0 24.531-6.84 24.531-18.932 0-12.23-11.125-19.208-24.531-19.208-13.128 0-24.53 6.702-24.53 19.208 0 12.091 11.402 18.932 24.53 18.932zm-.069-9.88c-5.113 0-9.121-4.146-9.121-9.19 0-4.975 4.008-9.19 9.121-9.19 5.114 0 9.26 4.215 9.26 9.19 0 5.044-4.146 9.19-9.26 9.19zM250.14 103.549v-19c0-4.768 3.386-7.463 7.946-7.463 3.87 0 6.219 2.142 6.219 5.666v20.797h15.202v-23.63c0-8.498-7.048-12.99-16.1-12.99-6.012 0-10.572 2.004-13.682 5.873l-.552-4.905h-14.235v35.652h15.202zM331.767 67.897h-18.311l-6.91 6.08-6.288 5.942.138-7.531V54.354h-15.202v49.195h15.202V92.425l3.662-2.764 3.248 4.284 7.463 9.604h18.518l-18.933-21.28 17.413-14.372z" fill="#2D2D2D"/><path d="M352.888 105C366.915 105 375 101.131 375 92.01c0-6.15-4.699-10.226-16.031-11.193l-7.946-.69c-3.594-.346-5.183-1.175-5.183-2.903 0-1.865 2.419-2.833 6.357-2.833 4.975 0 6.772 1.106 7.325 3.593l14.096-.345c-1.244-7.186-8.154-11.055-20.868-11.055-14.096 0-20.384 4.767-20.384 12.091 0 6.288 4.698 9.95 15.547 10.986l8.154.76c3.109.276 4.837 1.106 4.837 3.04 0 2.142-2.281 3.386-7.325 3.386-5.32 0-7.255-1.52-7.877-4.353l-14.442.345c.968 7.462 7.256 12.161 21.628 12.161zM15.202 54.376V34.684c0-4.283 3.04-7.116 7.255-7.116 3.179 0 5.528 2.418 5.528 5.527v21.28h15.202v-19.69c0-4.215 3.178-7.117 7.117-7.117 3.179 0 5.735 1.934 5.735 5.527v21.28h15.202V30.954c0-8.636-6.772-13.266-15.824-13.266-6.15 0-11.055 2.073-14.372 6.08-2.626-4.007-6.91-6.08-13.267-6.08-5.597 0-10.02 1.866-13.129 5.597l-.345-4.56H0v35.652h15.202zM100.473 55.62c9.951 0 18.934-3.386 22.458-11.608l-14.58-.76c-1.52 2.556-4.077 3.8-7.947 3.8-5.666 0-8.844-2.556-9.605-7.324h33.306v-1.796c0-12.644-10.365-20.314-24.392-20.314-13.198 0-24.046 6.979-24.046 18.932 0 12.298 10.78 19.07 24.806 19.07zM90.869 32.61c.898-4.352 3.87-6.494 8.913-6.494 5.114 0 7.947 2.142 8.638 6.494H90.869zM161.924 22.178c-3.455-3.247-8.085-4.767-13.82-4.767-10.642 0-20.108 6.564-20.108 19.139 0 12.022 7.946 19.277 20.384 19.277 6.495 0 11.263-2.073 14.373-6.08l.414 4.629h13.958V5.182h-15.201v16.996zm-9.398 23.285c-4.768 0-9.19-2.211-9.19-9.12 0-6.772 4.491-9.259 9.259-9.259 5.805 0 9.674 3.178 9.674 9.259 0 6.149-3.869 9.12-9.743 9.12zM190.627 15.13c4.353 0 7.601-3.108 7.601-7.668 0-4.284-3.248-7.462-7.601-7.462-4.354 0-7.601 3.178-7.601 7.462 0 4.56 3.247 7.669 7.601 7.669zm7.601 39.246V18.724h-15.202v35.652h15.202zM250.164 54.376c-1.244-2.28-1.659-5.528-1.659-8.982V31.23c0-8.775-5.458-13.75-21.628-13.75-15.201 0-21.213 4.284-22.25 12.506l14.511.553c.346-4.353 3.248-5.459 7.394-5.459 4.906 0 6.772 1.382 6.772 4.491v.622c0 1.175-.415 1.658-4.423 2.073l-11.194 1.105c-11.885 1.175-14.994 5.113-14.994 11.4 0 7.394 5.044 11.056 16.031 11.056 7.048 0 12.023-1.59 15.409-4.837.276 1.451.622 2.418.967 3.386h15.064zM222.8 47.743c-3.662 0-5.32-1.313-5.32-3.87 0-2.418 1.244-3.869 6.633-4.49l8.569-1.037c.345-.069.691-.069 1.036-.207v2.21c0 4.7-4.906 7.394-10.918 7.394z" fill="#2D2D2D"/></svg>