<svg width="1135" height="555" fill="none" xmlns="http://www.w3.org/2000/svg"><g clip-path="url(#a)" fill="#000"><path d="M565.257 255.93c0 1.333.97 2.424 2.304 2.424h.121c1.212 0 2.304-.97 2.425-2.182.727-7.876.727-15.753-.243-23.629-.121-1.333-1.333-2.182-2.546-2.182-1.334.122-2.304 1.212-2.182 2.545.121 6.059.242 15.632.121 23.024zM477.232 257.142c1.333 0 2.424-.97 2.546-2.181a146.02 146.02 0 0 0 0-23.024c-.122-1.333-1.334-2.303-2.668-2.182-1.333.122-2.303 1.333-2.182 2.666.485 6.544.606 13.088.121 19.631-.121.243-.121.606-.121.849v1.817c-.121 1.333.97 2.424 2.304 2.424z"/><path d="M451.891 297.131c.121 0 2.546.242 6.184.242 8.244 0 22.309-.969 28.493-7.513.121-.121.121-.242.242-.242 7.517 8.725 19.036 14.057 31.039 14.057h.122c13.458 0 26.795-6.665 35.767-17.571.849-.97.728-2.545-.242-3.393 2.91.727 5.941 1.09 8.851 1.212.121.242.364.363.485.605 6.547 4.848 15.52 7.756 25.219 7.756 10.912 0 22.673-3.636 32.373-11.997 12.367-10.542 17.217-27.871 12.731-45.321-4.001-15.632-12.367-28.477-23.401-36.232-17.338-11.997-38.435-14.178-55.652-5.938 2.789-3.03 5.092-6.423 6.79-9.937 5.214-10.542 5.335-23.145.364-32.718-4.729-9.21-14.307-15.996-24.856-17.935-10.063-1.817-20.976.606-29.948 6.544-7.275 4.847-12.367 11.391-14.307 18.419a25.557 25.557 0 0 0-.728 7.392c-2.061.97-4.001 2.06-5.698 3.393-7.881 5.817-13.095 14.905-14.307 24.6-5.214-.243-9.821.484-12.125.848-14.186 2.666-27.523 10.421-36.495 21.448-14.186 17.329-20.006 47.381-4.729 65.801 8.124 9.209 20.37 15.268 33.828 16.48zm98.089-14.178c-8.003 9.816-20.006 15.753-32.009 15.753h-.122c-11.154 0-21.945-5.332-28.493-13.814.122-.485.243-.969.243-1.454 4.728-1.212 9.093-2.909 12.852-5.211 6.911-4.241 12.246-10.421 15.156-17.571 1.697-4.362 2.788-9.331 3.152-15.268.243-3.515.121-7.756-.485-12.24.97 0 1.94.122 2.91.364 0 .364 0 .727.121 1.091-.97 3.271-1.455 6.664-1.333 10.179.242 13.329 8.123 26.417 20.005 33.445 2.91 1.697 6.184 3.03 9.458 3.999-.485-.121-.97.242-1.455.727zm-14.792-82.28c-4.972 2.423-14.671 5.816-22.916 1.938-1.213-.606-2.667 0-3.274 1.212-.606 1.212 0 2.666 1.213 3.272 3.152 1.454 6.547 2.181 10.306 2.181 5.213 0 10.912-1.333 16.732-4.12a86.522 86.522 0 0 0 3.395-1.818c-1.334 2.061-2.061 4.121-2.425 6.302v.848c-2.425 1.818-4.729 3.878-6.669 6.059-2.788-1.818-6.183-2.787-9.821-2.666-3.031 0-5.941.848-8.487 2.181-4.607-5.938-11.276-10.179-18.915-11.996l-.727-.364c6.183-8.725 14.307-12.603 28.008-13.451 7.639-.485 15.641 1.212 22.673 4.968-2.667 2.061-5.698 3.878-9.093 5.454zm-68.99 15.389c4.607-2.666 9.7-3.877 14.913-3.877 7.639 0 15.399 2.665 21.946 7.997 10.306 8.119 9.215 22.297 8.366 27.993-.849 5.332-2.667 10.663-5.213 15.268-2.668 4.969-5.82 6.544-12.004 9.331-10.185 4.484-18.672 5.817-25.825 3.878-4.244-1.091-8.488-3.393-12.974-7.029-3.759-3.029-6.062-5.695-7.517-8.603-1.819-3.878-2.425-8.725-1.455-14.421a44.391 44.391 0 0 1 8.366-19.994c3.274-4.605 7.153-8.119 11.397-10.543zm123.429.97c5.82 5.937 9.458 14.299 10.064 23.387.727 10.058-2.304 19.147-8.487 25.084-8.003 7.635-20.006 9.331-28.615 9.21-4.971 0-11.033-.606-16.61-2.666-5.093-2.545-9.336-7.392-11.398-13.209-2.061-5.937-2.182-12.966-.363-20.721 1.94-8.119 5.698-15.269 10.791-20.479a23.312 23.312 0 0 1 3.637-3.272c2.425-1.333 5.092-2.424 7.76-3.272.97-.242 1.576-1.091 1.697-1.939 2.546-.848 5.093-1.333 7.639-1.575 8.608-.606 17.581 2.908 23.885 9.452zm-77.476 5.937c.121.122.121.243.242.485-.121-.242-.121-.363-.242-.485zm-23.28-15.026c1.334.121 2.668.364 4.001.606.849.485 1.698.97 2.425 1.454a42.772 42.772 0 0 0-7.396-2.181c.364.121.607.121.97.121zm-42.194 22.661c.243-.606.607-1.091.849-1.576-.364.485-.606 1.091-.849 1.576zm1.092-2.06c.363-.606.727-1.212 1.091-1.697-.364.485-.728 1.091-1.091 1.697zm159.318-26.054c10.185 7.029 17.823 19.025 21.582 33.446 4.001 15.632-.242 31.143-11.155 40.473-14.671 12.603-34.07 13.209-46.801 7.029 3.516-.485 6.911-1.333 10.306-2.666 9.457-3.636 17.217-10.058 21.824-18.056 6.911-11.875 6.669-27.507-.606-39.625-6.305-10.543-17.581-18.177-30.19-20.358 8.244-1.818 17.217-.606 24.734 3.393.364.242.728.242 1.091.242.849 0 1.698-.485 2.183-1.333.606-1.212.121-2.666-.97-3.272-9.094-4.847-20.127-6.059-30.069-3.393-2.183.606-4.85 1.575-6.912 3.635-2.546.122-4.971.364-7.396.97-3.637.727-7.032 2.06-10.306 3.635 1.577-3.029 4.608-5.453 7.154-7.149 15.883-10.179 38.314-8.968 55.531 3.029zm-118.337-30.9c1.212-.849 2.425-1.697 3.759-2.303 1.212 3.999 3.395 7.634 6.668 10.179 3.516 2.787 8.366 3.999 12.974 3.393 4.243-.606 7.881-2.666 10.184-5.816 1.94-2.545 2.668-5.575 1.94-8.119-.97-3.757-4.364-6.302-9.699-7.513-5.941-1.212-12.246-.849-18.066.969 0-1.454.242-2.787.606-4.241 1.576-5.938 5.941-11.512 12.246-15.632 8.002-5.211 17.702-7.392 26.432-5.817 9.215 1.696 17.459 7.513 21.461 15.39 4.243 8.24 4.122 19.146-.485 28.356-2.062 4.12-4.85 7.876-8.366 11.269-8.245-4.726-17.703-7.028-26.917-6.422-14.429.969-23.765 5.089-30.676 14.178-4.001-3.878-9.215-5.817-14.428-6.665 1.091-8.361 5.577-16.238 12.367-21.206zm8.245-4.363c5.335-1.818 11.033-2.302 16.489-1.091 1.577.364 5.335 1.333 5.942 3.878.242 1.212-.122 2.666-1.213 4.12-1.576 2.06-4.001 3.393-6.911 3.878a12.593 12.593 0 0 1-9.336-2.424c-2.425-2.06-4.122-4.968-4.971-8.361zm-70.323 50.411c8.244-10.058 20.612-17.208 33.706-19.753 8.366-1.575 18.794-1.211 25.341 3.515-4.608-.364-9.579.363-14.914 2.302-.121 0-.242.121-.363.121-.243-.121-.485-.121-.849-.121-9.457.364-18.066 2.545-25.583 6.301-8.366 4.363-15.035 10.906-19.036 18.541a2.429 2.429 0 0 0 1.091 3.272c.364.242.728.242 1.092.242.848 0 1.697-.485 2.182-1.333 3.516-6.786 9.579-12.603 16.975-16.48 3.758-1.939 7.759-3.393 12.003-4.363-7.396 5.09-13.216 11.876-16.732 19.873-6.184 13.573-4.85 30.659 3.031 41.323 6.669 8.967 17.702 13.935 30.918 13.935a56.69 56.69 0 0 0 6.305-.363c.485 0 1.091-.122 1.576-.243.121.243.364.606.485.848-.242.364-.485.606-.727.97-5.456 5.695-21.825 6.665-30.918 5.817-12.246-1.091-23.28-6.544-30.312-15.027-13.701-16.238-8.245-43.503 4.729-59.377z"/><path d="M741.55 387.531c-2.061-3.757-4.122-7.392-6.184-11.149 17.46-42.534 15.641-96.095-4.849-147.232-16.369-40.716-44.741-77.313-81.963-106.032-22.189-17.086-45.104-29.325-68.141-36.475-25.341-7.877-54.198-10.421-85.722-7.755-48.499 4.12-92.026 19.752-125.854 45.199-34.313 25.812-59.775 62.65-71.778 103.972-10.913 37.808-7.518 90.278 8.851 134.145-4.971 8.362-9.943 16.844-14.55 25.327l-1.091 2.06c-19.763 36.111-46.802 85.552-24.492 125.42 8.002 14.42 28.372 20.843 44.134 20.843h.485c11.64-.121 24.128-4.12 36.131-11.512 16.611-10.3 29.221-24.963 39.042-39.626 14.065 16.844 36.01 24.721 51.409 29.204 24.977 7.15 50.802 10.785 76.506 10.785 24.735 0 49.591-3.393 73.719-10.058 27.159-7.513 46.195-18.419 58.077-33.324 10.185 15.754 23.401 31.87 41.345 42.898 12.004 7.513 24.492 11.512 36.132 11.512h.485c15.641 0 36.01-6.544 44.134-20.843 22.309-39.868-4.729-89.309-24.492-125.42l-1.334-1.939zM301.666 229.392c11.64-40.231 36.495-76.222 70.081-101.427 33.1-24.842 75.779-40.231 123.429-44.23 30.918-2.666 59.169 0 83.903 7.634 22.431 6.907 44.861 18.904 66.565 35.748 36.495 28.113 64.382 64.104 80.386 103.972 19.521 48.592 21.704 99.245 6.305 139.961-19.157-32.839-40.739-64.467-61.836-95.125-.363-.606-.97-.97-1.697-1.091-.728-.121-1.334.121-1.94.606-2.546 2.302-5.456 3.393-8.609 4.605-1.94.727-4.001 1.575-6.183 2.666-16.611 8.967-32.494 19.267-47.408 30.9-7.153-5.695-17.096-12.239-28.372-12.36h-.242c-9.215 0-16.975 3.757-24.492 7.513-8.366 4.12-16.247 7.998-25.826 6.544-7.759-1.091-14.67-3.999-22.188-7.028-8.608-3.515-17.459-7.271-27.402-7.756-16.732-.969-33.221 4.605-45.225 15.026-15.641-12.36-32.373-23.387-49.832-32.718-2.061-1.091-4.123-1.939-6.184-2.666-3.152-1.212-6.183-2.424-8.608-4.605a2.24 2.24 0 0 0-1.94-.606c-.728.122-1.334.485-1.698 1.091-17.944 26.296-36.374 53.198-53.348 80.948-15.035-42.292-18.066-91.733-7.639-127.602zm330.762 77.433-.121-6.543v-.364c.848-.484 1.576-.969 2.424-1.454-.97 1.939-1.333 3.878-1.576 5.211l-.727 3.15zm-8.003.122c0-.485-.242-.97-.485-1.333.97-.606 1.819-1.212 2.789-1.818-.606 3.029-1.334 6.18-1.94 9.21l-.364-6.059zm-15.519 9.694c0-.121 0-.121-.121-.242.848-.606 1.697-1.333 2.546-1.939-.728 1.454-1.455 2.908-1.94 4.362-.121-.606-.243-1.454-.485-2.181zm-14.671 11.754.121 3.272c-.97-.363-2.061-.727-3.031-1.091.97-.727 1.819-1.454 2.91-2.181zm9.942 3.03c.243-2.06.728-3.999 1.334-5.938.242 2.181.485 4.241.606 6.422 0 .606.243 1.091.728 1.576-1.213 0-2.547 0-3.88-.121.727-.485 1.212-1.091 1.212-1.939zm6.79.727c.728-3.393 1.455-7.029 2.667-10.422l.122 11.028c-1.091.121-2.061.363-3.153.363.122-.242.243-.606.364-.969zm6.426-22.055s.121 0 0 0c.121 0 .121 0 0 0 0 .121 0 0 0 0zm2.91 12.603.364 8.482c-.606.243-1.213.364-1.819.485l1.455-8.967zm7.396-.727.121 6.422c-.485.243-1.091.485-1.576.727.485-2.423.97-4.726 1.455-7.149zm8.609-9.695-.728 10.301c0 .484.121 1.09.364 1.454-.728.485-1.576.969-2.304 1.454l2.668-13.209zm5.698 2.182c-.121 1.333-.242 2.666-.242 3.877 0 .485.121.97.364 1.455-.364.363-.849.605-1.213.969l1.091-6.301zm-.848-19.874c.121-.121.242-.121.485-.242-.122.121-.122.242-.243.485 0-.121-.121-.243-.242-.243.121 0 .121 0 0 0zm6.668 18.298c.121.485.485.849.849 1.091l-1.334 1.333.485-2.424zm-.606-21.933c.121-.121.242-.121.364-.242l-.122.605c0-.121-.121-.242-.242-.363zm5.941 16.602c.121.363.364.605.727.848a8.524 8.524 0 0 0-.97 1.212c.122-.728.122-1.455.243-2.06zm6.911-11.513c.243.122.606.243.849.243.364 0 .727 0 1.091-.121-.606 1.09-1.091 2.181-1.819 3.272-.485.727-.97 1.575-1.455 2.302l1.334-5.696zm6.184-11.633c-.364-.848-1.092-1.454-1.94-1.575a15.607 15.607 0 0 0 2.425-1.333c-.122.969-.364 1.939-.485 2.908zm-135.918 51.259c-5.941 3.272-14.186 2.06-19.642-2.787-4.85-4.484-7.275-11.754-6.305-18.783 6.426 2.666 13.216 5.211 20.369 6.18 4.487.606 8.609.243 12.61-.606 1.698 5.817-1.334 12.845-7.032 15.996zm-140.283-40.837-.121-1.333c.121.121.364.242.485.363a.928.928 0 0 0-.243.606c-.121 0-.121.243-.121.364zm-7.638-5.575c.606.364 1.333.728 1.939 1.091-.363.848-.727 1.818-1.091 2.666 0-1.212-.363-2.545-.848-3.757zm-15.763-4.483c-.242-1.091-.363-2.181-.485-3.272.243.121.485.242.728.485 0 .121-.121.363-.121.484 0 .728-.122 1.455-.122 2.303zm5.699 13.087.121 1.333c-.121-.121-.121-.363-.242-.485 0-.242 0-.484.121-.848zm3.759-11.875c.848.363 1.697.727 2.546 1.211h.121c-.606.364-1.091.97-1.212 1.576l-.728 3.877-.727-6.664zm2.91 19.752c.121 1.333.485 2.545.848 3.756-.485-.484-.848-1.09-1.333-1.575l.485-2.181zm5.456 7.998c.97-.364 1.697-1.212 1.697-2.303 0-1.454 0-3.029.121-4.605l.849 9.816c-1.091-.97-2.061-1.818-3.031-2.787 0 0 .242 0 .364-.121zm7.517 3.15c-.121-3.15-.121-6.301.243-9.573v2.545c0 3.878-.122 7.755.848 11.633l-2.91-2.181c1.092-.364 1.819-1.333 1.819-2.424zm3.88-19.873c.485.363.97.606 1.576.969-.242.727-.485 1.576-.727 2.303-.364-1.091-.607-2.181-.849-3.272zm2.91 17.207.97 11.391c-.606-.363-1.334-.727-1.94-1.09.485-.485.727-1.091.727-1.697-.121-2.908-.121-5.695.243-8.604zm3.637-12.966c.97.606 1.94 1.333 2.91 1.939-1.334 1.212-2.061 2.908-2.425 4.484l-.485-6.423zm3.88 17.329.849 10.664c-.728-.243-1.455-.606-2.183-.97l1.334-9.694zm4.001-12.118c.485.363 1.092.727 1.577 1.091-.485.848-.97 1.696-1.334 2.544l-.243-3.635zm1.455 24.357c1.94-3.514 2.183-7.513 2.304-11.391v-.242c.364 4.241.727 8.482.849 12.602-1.092-.121-2.183-.484-3.153-.969-.121.121 0 .121 0 0zm6.426-18.662c1.213.849 2.304 1.697 3.517 2.545-1.455 1.454-2.304 3.272-2.668 5.09-.242-2.545-.606-5.09-.849-7.635zm4.244 19.752c.121.485.243.849.243 1.333-.243 0-.485 0-.728-.121.121-.363.364-.848.485-1.212zm18.672-1.696c.121.121.364.242.485.363-.242.122-.364.122-.606.243v-.121c0-.243.121-.364.121-.485zm-4.729-1.091c-.242.727-.727 1.455-1.091 1.818v-.121l-2.667-6.544c-.364-.969-1.455-1.575-2.425-1.454-1.091.121-1.94.848-2.183 1.939-.242 1.454-.727 2.787-1.091 4.241-.606-3.635-.849-7.271-.97-11.027 3.638 2.908 7.396 5.816 10.912 8.846.364.242.607.485.97.727-.727.364-1.212.848-1.455 1.575zm-5.456 3.999h-.485c.122-.242.243-.363.243-.606v.122c.121.242.242.363.242.484zM343.86 520.222c-11.276 7.028-22.794 10.785-33.585 10.785h-.364c-14.792 0-33.101-6.302-39.89-18.42-20.976-37.444 5.334-85.552 24.491-120.694l1.092-2.06c19.763-36.232 43.285-70.89 66.322-104.456 1.091 5.453 3.273 11.027 6.547 16.601 1.455 2.545 3.153 4.969 4.971 7.271v.606c.121 1.212.97 2.06 2.183 2.181 7.275 8.483 16.489 15.753 26.31 20.358 7.396 3.514 14.914 5.453 22.067 5.817.364.606.97 1.09 1.819 1.09h.242c.849 0 1.577-.484 2.062-1.09 5.577-.121 10.912-1.333 15.883-3.393-13.095 47.623-28.736 87.491-49.105 125.057-11.034 20.115-26.674 45.078-51.045 60.347zm44.498-39.747c4.001-6.301 7.638-12.603 10.791-18.419 3.758-6.907 7.274-13.936 10.791-20.964-2.062 16.844-4.123 36.596-5.093 53.924-6.183-3.877-11.882-8.603-16.489-14.541zm197.39 29.568c-48.378 13.329-99.302 13.087-147.558-.727-8.487-2.424-18.914-5.938-28.735-11.391.97-18.419 3.395-42.898 7.032-71.011 12.852-28.72 23.643-59.62 33.222-94.641.242-.969-.122-2.06-.97-2.666l-.485-.363c-3.395-2.182-5.214-3.515-8.245-6.059-1.819-1.455-3.638-3.03-5.456-4.484 11.033-9.331 25.947-14.057 41.224-13.209 8.487.485 16.126 3.393 24.128 6.786-1.698 8.968 1.334 18.42 7.638 24.236 4.244 3.878 9.821 5.938 15.399 5.938 3.395 0 6.79-.727 9.821-2.424 7.638-4.12 11.639-13.693 9.457-21.691 3.88-1.333 7.639-3.15 11.397-4.968 7.396-3.635 14.307-7.028 22.431-7.028h.242c7.518 0 15.399 3.393 24.492 10.542-2.667 2.06-5.213 4.242-7.76 6.423-3.031 2.545-4.849 3.877-8.244 6.059l-.485.363c-.849.606-1.213 1.697-.97 2.666 10.184 37.808 21.945 70.769 36.253 101.427 1.576 17.45 3.031 43.382 3.516 60.832-10.064 6.059-22.431 11.27-37.344 15.39zm41.951-18.783c-.485-13.451-1.334-30.78-2.425-45.563 2.789 5.574 5.578 11.027 8.488 16.48 2.546 4.726 5.456 9.694 8.487 14.784-3.88 5.21-8.73 10.058-14.55 14.299zm135.191 21.327c-6.79 12.118-25.099 18.42-39.891 18.42h-.364c-10.79-.122-22.43-3.878-33.585-10.785-18.066-11.27-31.403-27.993-41.466-44.109-.122-.243-.243-.364-.364-.485-3.395-5.332-6.426-10.664-9.094-15.753-20.369-37.566-36.01-77.434-49.105-125.057 5.456 2.302 11.398 3.393 17.46 3.393 8.002 0 16.368-1.939 24.613-5.817 13.458-6.422 26.068-17.692 33.464-30.416 3.274-5.574 5.456-11.027 6.548-16.601 23.036 33.566 46.558 68.345 66.322 104.456l1.091 2.06c19.036 35.142 45.346 83.25 24.371 120.694zM663.346 107.728c3.516 3.272 7.517 5.938 11.397 8.483 4.001 2.666 7.76 5.089 10.912 8.24.97.969 2.425 2.908 3.88 4.968 4.001 5.453 8.487 11.633 13.58 11.997h1.212c4.122 0 6.305-1.818 7.517-3.514 2.789-3.878 2.062-9.452.485-13.088-2.788-6.543-9.699-13.935-18.55-19.873-9.336-6.18-18.551-9.452-25.462-8.725-4.001.364-8.003 2.909-7.639 6.907.243 2.06 1.455 3.515 2.668 4.605zm5.456-6.665c11.033-1.09 33.464 12.239 39.162 25.69 1.334 3.03 1.334 6.544 0 8.362-.848 1.211-2.303 1.575-4.364 1.454-2.91-.243-7.275-6.18-10.064-10.058-1.697-2.302-3.152-4.241-4.365-5.574-3.516-3.514-7.638-6.18-11.64-8.846-3.879-2.545-7.517-4.969-10.669-7.877-.243-.242-1.091-1.091-1.213-1.575-.121-.485 1.334-1.333 3.153-1.576z"/><path d="M426.914 534.036c-2.425-1.09-4.729-2.06-6.062-2.908-7.518-4.605-15.762-8.846-25.22-13.088-.97-.484-4.122-1.817-6.911-.242-1.455.848-2.425 2.303-3.031 4.363-4.122 13.935 11.397 21.448 20.733 25.811.97.484 1.819.848 2.668 1.212 5.577 2.787 12.731 5.695 20.127 5.695 1.333 0 2.667-.121 4.122-.364 2.91-.484 5.093-1.454 6.669-2.908 2.303-2.302 3.031-5.574 1.697-8.24-2.182-3.878-8.608-6.665-14.792-9.331zm9.579 14.178c-.849.848-2.183 1.333-4.002 1.697-7.517 1.211-15.277-2.06-21.218-4.969-.849-.363-1.697-.848-2.667-1.333-11.155-5.332-20.855-10.785-18.187-20.115.363-1.091.727-1.455.848-1.455 0 0 .243-.121.485-.121.364 0 .97.121 1.94.606 9.215 4.12 17.339 8.361 24.735 12.845 1.697.97 4.122 2.06 6.668 3.151 4.365 1.939 11.034 4.726 12.246 7.149.243.727-.121 1.818-.848 2.545zM824.24 26.902h.485c1.334-.242 2.183-1.575 1.94-2.908-1.455-6.908-1.455-14.178-.121-21.086.243-1.333-.606-2.544-1.94-2.787-1.334-.242-2.546.606-2.789 1.94-1.455 7.512-1.333 15.51.122 23.023.121 1.09 1.091 1.818 2.303 1.818zM823.634 65.437c.242 0 .485 0 .728-.121 1.333-.364 2.061-1.697 1.576-3.03a66.263 66.263 0 0 1-2.91-16.843c-.121-1.334-1.213-2.424-2.546-2.303-1.334.121-2.425 1.212-2.304 2.545.364 6.059 1.334 12.118 3.152 18.055.243 1.091 1.213 1.697 2.304 1.697zM848.732 41.322c-4.607-1.09-9.457-1.333-14.186-.97-1.333.122-2.303 1.213-2.182 2.546.121 1.333 1.212 2.302 2.546 2.18 4.244-.363 8.487 0 12.731.85h.485c1.091 0 2.061-.728 2.304-1.94.363-1.09-.485-2.423-1.698-2.666zM801.203 39.263c-7.153-.122-14.186.848-20.975 3.15-1.213.485-1.94 1.818-1.577 3.03.364.97 1.334 1.696 2.304 1.696.243 0 .485 0 .728-.121 6.183-2.06 12.73-3.03 19.278-2.908a2.431 2.431 0 0 0 2.425-2.424c.242-1.212-.849-2.302-2.183-2.423zM258.866 67.376V50.168a2.431 2.431 0 0 0-2.425-2.423 2.431 2.431 0 0 0-2.425 2.423v17.208a2.431 2.431 0 0 0 2.425 2.423 2.431 2.431 0 0 0 2.425-2.423zM261.291 92.823c.485 0 .97-.12 1.455-.484 1.091-.727 1.333-2.303.606-3.394-2.061-2.787-2.91-6.422-2.425-9.815.243-1.333-.727-2.545-2.061-2.787s-2.546.727-2.789 2.06c-.727 4.605.485 9.452 3.274 13.33.364.727 1.091 1.09 1.94 1.09zM273.779 73.677h8.609a2.432 2.432 0 0 0 2.425-2.423 2.432 2.432 0 0 0-2.425-2.424h-8.609a2.431 2.431 0 0 0-2.425 2.424 2.431 2.431 0 0 0 2.425 2.423zM240.436 75.737l-12.488 3.878c-1.334.363-1.94 1.818-1.576 3.03a2.432 2.432 0 0 0 2.303 1.696c.243 0 .485 0 .728-.121l12.488-3.878c1.334-.364 1.94-1.818 1.576-3.03-.363-1.333-1.697-2.06-3.031-1.575zM783.38 224.545c-3.516-.97-7.153-.243-9.7 1.939-1.697 1.454-2.788 3.756-2.788 5.816 0 1.212.242 2.424.97 3.393 0 .243.121.364.121.606.849 3.757 3.395 6.544 6.668 7.392.728.121 1.334.242 2.062.242 2.546 0 5.092-1.09 7.153-3.271 2.546-2.666 3.516-6.302 2.546-9.574-.97-3.15-3.516-5.574-7.032-6.543zm-5.335 11.754c-.242.364-.364.727-.364 1.091-.242-.364-.485-.606-.606-1.091.364-.121.728-.363 1.213-.485l-.243.485zm.121-5.816c.364-.364.607-.849.607-1.333.727-.122 1.455-.243 2.182-.122-.849.485-1.819.97-2.789 1.455zM226.614 230.604c-4.001-2.787-9.942-1.939-13.458 1.939-.849.848-1.455 1.939-1.94 3.029-.243.121-.485.364-.607.485-1.697 1.939-2.424 4.483-2.182 7.271.243 2.787 1.576 5.453 3.637 7.149 2.304 1.939 5.457 2.666 8.366 2.303.364.121.728.242 1.092.242.727 0 1.455-.364 1.94-.97 0 0 0-.121.121-.121 1.091-.363 2.061-.969 2.91-1.696 3.88-3.151 5.577-8.604 4.122-13.693-.606-2.424-2.061-4.605-4.001-5.938zm-9.821 5.211c.606-.606 1.334-1.212 2.061-1.455-.97 2.182-2.303 4.242-4.001 5.817.243-1.697.849-3.272 1.94-4.362zm3.759 12.117c-.849.122-1.698.243-2.425.122.121-.122.364-.122.485-.243l3.516-2.787c-.364.97-.97 1.939-1.576 2.908zm3.758-10.785-1.94 1.455.97-2.424c.243-.485.364-.848.485-1.333v-.121c.607.485 1.213 1.091 1.577 1.939-.364 0-.728.121-1.092.484zM840.851 362.446c-3.152-2.302-7.881-2.181-11.033.364-2.183 1.696-3.638 4.484-4.001 7.513 0-3.393 3.273-7.513 4.971-9.815.849-1.091.606-2.545-.485-3.393-1.091-.849-2.546-.606-3.395.484-3.153 4.12-6.547 8.846-5.941 13.936.364 3.635 1.94 6.907 4.365 9.209 2.303 2.182 5.335 3.515 8.366 3.515.606 0 1.091 0 1.697-.122 3.759-.605 7.154-3.271 8.73-6.907 1.455-3.393 1.334-7.513-.364-10.906-.727-1.696-1.697-3.029-2.91-3.878zm-8.244 16.723c-1.334-.242-2.789-.969-3.88-1.939a10.737 10.737 0 0 1-1.94-2.666l.121.122a2.573 2.573 0 0 0 2.304 0c.242-.122.363-.243.606-.364 0 .363.242.606.364.969.485.606 1.212 1.091 1.94 1.091h.848a5.966 5.966 0 0 0-.485 1.333c0 .485 0 .969.122 1.454zm4.001-11.512c-.122-.363-.364-.606-.607-.848a2.329 2.329 0 0 0-1.455-.485c-.485 0-.97.121-1.333.485-.243.242-.606.363-.849.606l.728-.727c1.455-1.091 3.637-1.333 4.971-.364-.728.364-1.092.848-1.455 1.333zM907.658 201.4c1.213-.485 1.94-1.818 1.455-3.151-1.091-2.787-1.334-5.817-.97-8.846.243-1.333-.727-2.545-2.061-2.787s-2.546.727-2.789 2.06c-.606 3.756-.121 7.634 1.213 11.27.364.969 1.334 1.575 2.303 1.575.243 0 .485-.121.849-.121zM910.447 215.214a2.322 2.322 0 0 0-1.819-2.908 2.325 2.325 0 0 0-2.91 1.818c-1.212 4.726-.485 9.936 1.94 14.178.485.848 1.213 1.212 2.183 1.212.364 0 .849-.122 1.212-.243 1.213-.606 1.576-2.181.97-3.272-1.94-3.271-2.425-7.149-1.576-10.785zM927.179 206.853l-8.851-1.091c-1.334-.121-2.546.727-2.667 2.06-.122 1.333.727 2.545 2.061 2.666l8.851 1.091h.242c1.213 0 2.304-.849 2.425-2.182.121-1.211-.849-2.423-2.061-2.544zM897.958 208.913h-10.063a2.43 2.43 0 0 0-2.425 2.423 2.432 2.432 0 0 0 2.425 2.424h10.063a2.432 2.432 0 0 0 2.425-2.424 2.43 2.43 0 0 0-2.425-2.423zM154.715 298.222c-1.334-.121-2.547.848-2.547 2.181l-1.212 16.36c-.121 1.333.849 2.544 2.182 2.544h.243c1.212 0 2.304-.969 2.425-2.181l1.212-16.359c0-1.212-.97-2.424-2.303-2.545zM155.806 330.456c.121-1.333-.97-2.424-2.304-2.545-1.333 0-2.425.97-2.546 2.303a89.179 89.179 0 0 0 1.091 17.934c.243 1.212 1.213 2.06 2.425 2.06h.364c1.334-.242 2.182-1.454 1.94-2.787-.97-5.574-1.213-11.27-.97-16.965zM175.933 320.277a69.91 69.91 0 0 1-15.883 1.454 2.43 2.43 0 0 0-2.425 2.423 2.432 2.432 0 0 0 2.425 2.424h1.091c5.335 0 10.548-.485 15.762-1.575 1.334-.243 2.182-1.576 1.94-2.909-.243-1.333-1.576-2.06-2.91-1.817zM136.043 325.488l-11.276-.364h-.122c-1.333 0-2.425 1.091-2.425 2.302 0 1.333.97 2.424 2.304 2.545l11.276.364h.121c1.334 0 2.425-1.091 2.425-2.303.122-1.454-.97-2.544-2.303-2.544zM105.488 97.67v-.12a2.323 2.323 0 0 0-2.91-1.819c-5.213 1.091-9.214 5.575-9.578 10.785-.364 5.453 3.759 10.664 8.972 11.391.364 0 .728.121 1.091.121 2.304 0 4.729-.969 6.669-2.666 2.061-1.817 3.274-4.483 3.152-7.028-.121-3.393-2.061-6.18-3.637-7.877-1.091-1.333-2.425-2.18-3.759-2.787zm-5.82 9.089c0-1.333.486-2.666 1.213-3.636.121-.121.121-.242.243-.242-.728 1.212-1.213 2.666-1.455 3.878zM1027.33 376.262a2.43 2.43 0 0 0 2.42-2.424v-8.725a2.43 2.43 0 0 0-2.42-2.424 2.438 2.438 0 0 0-2.43 2.424v8.725c0 1.333 1.1 2.424 2.43 2.424zM1026.72 382.684c-1.33.121-2.3 1.212-2.3 2.545l.48 8.24c.13 1.333 1.1 2.302 2.43 2.302h.12c1.33-.121 2.3-1.211 2.3-2.544l-.48-8.241c0-1.333-1.21-2.423-2.55-2.302zM1039.33 376.625c-1.94.242-3.88 0-5.82-.364a2.329 2.329 0 0 0-2.91 1.818 2.327 2.327 0 0 0 1.82 2.908c1.7.485 3.52.606 5.34.606.72 0 1.45 0 2.18-.121 1.33-.121 2.3-1.333 2.18-2.666-.24-1.333-1.45-2.424-2.79-2.181zM1016.78 376.746a34.57 34.57 0 0 1-7.03 1.455c-1.34.121-2.31 1.211-2.31 2.544.13 1.333 1.22 2.303 2.43 2.303h.12c2.79-.243 5.58-.727 8.25-1.697 1.21-.485 1.94-1.817 1.57-3.029-.36-1.333-1.82-2.06-3.03-1.576z"/></g><defs><clipPath id="a"><path fill="#fff" transform="translate(93)" d="M0 0h949v555H0z"/></clipPath></defs></svg>